<svg xmlns="http://www.w3.org/2000/svg" xmlns:xlink="http://www.w3.org/1999/xlink" width="500" zoomAndPan="magnify" viewBox="0 0 375 374.999991" height="500" preserveAspectRatio="xMidYMid meet" version="1.0"><defs><g/></defs><rect x="-37.5" width="450" fill="#ffffff" y="-37.499999" height="449.999989" fill-opacity="1"/><rect x="-37.5" width="450" fill="#000000" y="-37.499999" height="449.999989" fill-opacity="1"/><path stroke-linecap="butt" transform="matrix(0.75, 0, 0, 0.75, 0.0000045, -0.000000000000042633)" fill="none" stroke-linejoin="miter" d="M -0.000006 0.000000000000056843 L 500.000059 0.000000000000056843 L 500.000059 500.000065 L -0.000006 500.000065 Z M -0.000006 0.000000000000056843 " stroke="#ffd242" stroke-width="20" stroke-opacity="1" stroke-miterlimit="4"/><g fill="#ffc200" fill-opacity="1"><g transform="translate(189.27111, 159.089199)"><g><path d="M 53.96875 -6.609375 C 58.257812 -10.234375 62.441406 -13.804688 66.515625 -17.328125 C 68.492188 -19.859375 71.351562 -22.882812 75.09375 -26.40625 C 74.875 -27.289062 74.65625 -27.953125 74.4375 -28.390625 L 74.265625 -28.71875 L 72.625 -28.71875 C 68 -29.050781 65.132812 -30.644531 64.03125 -33.5 C 62.382812 -34.820312 61.613281 -36.53125 61.71875 -38.625 C 62.050781 -40.601562 61.78125 -42.472656 60.90625 -44.234375 C 60.675781 -46.210938 60.835938 -48.132812 61.390625 -50 C 61.722656 -51 61.832031 -52.875 61.71875 -55.625 C 61.71875 -58.8125 63.316406 -61.117188 66.515625 -62.546875 C 69.484375 -64.085938 72.398438 -64.582031 75.265625 -64.03125 C 76.910156 -64.03125 78.335938 -63.976562 79.546875 -63.875 C 79.210938 -63.875 79.269531 -63.984375 79.71875 -64.203125 C 80.488281 -64.203125 81.3125 -64.144531 82.1875 -64.03125 C 83.289062 -63.707031 84.117188 -63.546875 84.671875 -63.546875 C 87.304688 -63.867188 89.832031 -64.03125 92.25 -64.03125 C 93.25 -63.925781 94.296875 -64.035156 95.390625 -64.359375 C 96.378906 -64.585938 98.96875 -64.367188 103.15625 -63.703125 C 107.21875 -63.703125 109.414062 -62.878906 109.75 -61.234375 C 110.082031 -59.796875 109.476562 -58.582031 107.9375 -57.59375 C 102.988281 -55.832031 97.210938 -54.898438 90.609375 -54.796875 C 90.054688 -54.796875 89.175781 -54.6875 87.96875 -54.46875 C 87.300781 -54.132812 86.3125 -54.023438 85 -54.140625 C 84.113281 -54.140625 83.394531 -54.023438 82.84375 -53.796875 L 80.375 -53.796875 C 78.726562 -53.691406 77.023438 -53.421875 75.265625 -52.984375 C 73.941406 -52.535156 73.390625 -51.160156 73.609375 -48.859375 C 72.953125 -45.109375 73.503906 -42.242188 75.265625 -40.265625 C 76.691406 -39.273438 78.722656 -39.164062 81.359375 -39.9375 C 83.671875 -40.601562 86.257812 -41.046875 89.125 -41.265625 L 102.484375 -43.578125 L 106.609375 -43.578125 C 108.921875 -43.898438 110.519531 -43.84375 111.40625 -43.40625 C 121.300781 -43.40625 127.019531 -44.066406 128.5625 -45.390625 C 129.664062 -47.035156 130 -49.398438 129.5625 -52.484375 C 129.5625 -54.128906 128.566406 -55.226562 126.578125 -55.78125 C 126.253906 -55.78125 125.816406 -55.835938 125.265625 -55.953125 C 122.953125 -55.835938 120.640625 -56.113281 118.328125 -56.78125 C 116.347656 -57.769531 115.359375 -58.867188 115.359375 -60.078125 C 115.359375 -61.066406 116.1875 -62 117.84375 -62.875 C 120.257812 -64.195312 122.789062 -64.804688 125.4375 -64.703125 C 126.09375 -64.703125 126.695312 -64.8125 127.25 -65.03125 C 127.351562 -65.03125 127.679688 -64.972656 128.234375 -64.859375 C 133.953125 -64.859375 137.96875 -63.59375 140.28125 -61.0625 C 142.257812 -58.75 142.8125 -56.492188 141.9375 -54.296875 C 141.382812 -52.203125 140.832031 -49.175781 140.28125 -45.21875 C 140.28125 -44.882812 139.289062 -41.75 137.3125 -35.8125 C 135.113281 -33.0625 130.21875 -32.238281 122.625 -33.34375 C 120.3125 -33.664062 118 -33.882812 115.6875 -34 C 113.707031 -34.332031 111.5625 -34.441406 109.25 -34.328125 C 107.601562 -34.210938 106.117188 -34.15625 104.796875 -34.15625 C 104.140625 -34.382812 103.207031 -34.222656 102 -33.671875 C 99.6875 -33.234375 98.085938 -33.015625 97.203125 -33.015625 C 96.210938 -33.015625 95.554688 -32.957031 95.234375 -32.84375 C 91.929688 -32.070312 89.5625 -31.023438 88.125 -29.703125 C 83.175781 -23.109375 80.648438 -19.476562 80.546875 -18.8125 C 79.546875 -17.164062 78.550781 -15.847656 77.5625 -14.859375 C 77.019531 -14.410156 76.582031 -13.691406 76.25 -12.703125 L 72.28125 -6.765625 C 71.957031 -5.992188 71.078125 -5.0625 69.640625 -3.96875 C 68.984375 -3.300781 68.269531 -2.304688 67.5 -0.984375 C 64.53125 2.640625 61.945312 4.835938 59.75 5.609375 C 58.863281 5.609375 57.488281 6.65625 55.625 8.75 C 53.632812 10.726562 51.429688 12.15625 49.015625 13.03125 C 46.378906 13.695312 44.125 13.863281 42.25 13.53125 C 40.269531 12.539062 38.617188 10.945312 37.296875 8.75 C 36.640625 7.207031 37.023438 5.226562 38.453125 2.8125 C 39.773438 0.5 41.863281 -1.039062 44.71875 -1.8125 C 49.34375 -3.46875 52.425781 -5.066406 53.96875 -6.609375 Z M 65.84375 -87.3125 C 63.539062 -88.300781 61.5625 -90.003906 59.90625 -92.421875 C 57.59375 -95.941406 56.382812 -98.582031 56.28125 -100.34375 C 56.382812 -101.664062 56.382812 -102.710938 56.28125 -103.484375 C 56.0625 -104.472656 56.0625 -105.242188 56.28125 -105.796875 C 56.71875 -106.453125 57.046875 -108.046875 57.265625 -110.578125 C 57.597656 -116.191406 60.347656 -120.316406 65.515625 -122.953125 C 66.953125 -123.609375 68.769531 -123.5 70.96875 -122.625 C 71.957031 -122.289062 72.945312 -121.628906 73.9375 -120.640625 C 75.582031 -120.535156 77.066406 -119.765625 78.390625 -118.328125 C 80.367188 -114.703125 78.941406 -112.722656 74.109375 -112.390625 C 70.585938 -111.285156 68.660156 -109.851562 68.328125 -108.09375 C 67.992188 -107 67.828125 -105.40625 67.828125 -103.3125 C 68.160156 -101.988281 68.878906 -100.832031 69.984375 -99.84375 C 71.410156 -98.195312 72.726562 -97.425781 73.9375 -97.53125 C 76.03125 -97.757812 78.175781 -97.875 80.375 -97.875 C 81.695312 -97.875 82.90625 -97.925781 84 -98.03125 C 84.113281 -98.363281 84.335938 -98.640625 84.671875 -98.859375 C 85.765625 -99.847656 86.753906 -100.785156 87.640625 -101.671875 C 87.742188 -103.316406 87.851562 -104.960938 87.96875 -106.609375 C 88.957031 -111.234375 89.671875 -113.710938 90.109375 -114.046875 C 86.804688 -115.585938 84.992188 -116.628906 84.671875 -117.171875 C 84.335938 -118.160156 84.171875 -119.15625 84.171875 -120.15625 C 84.503906 -120.8125 85.054688 -121.359375 85.828125 -121.796875 C 86.816406 -122.128906 87.75 -122.570312 88.625 -123.125 C 90.050781 -124.113281 92.195312 -124.441406 95.0625 -124.109375 C 96.382812 -123.992188 97.429688 -123.9375 98.203125 -123.9375 C 98.523438 -124.269531 100.941406 -124.601562 105.453125 -124.9375 C 107.109375 -125.269531 108.707031 -125.210938 110.25 -124.765625 C 111.34375 -124.441406 112.828125 -124.332031 114.703125 -124.4375 C 116.128906 -124.769531 117.503906 -124.660156 118.828125 -124.109375 C 122.898438 -123.117188 125.046875 -121.6875 125.265625 -119.8125 C 125.265625 -117.832031 124.550781 -116.40625 123.125 -115.53125 C 121.46875 -114.757812 119.15625 -114.316406 116.1875 -114.203125 C 117.613281 -112.441406 118.109375 -108.207031 117.671875 -101.5 C 119.648438 -99.519531 120.804688 -98.421875 121.140625 -98.203125 C 124.546875 -98.859375 127.078125 -99.019531 128.734375 -98.6875 C 130.160156 -98.582031 131.644531 -99.078125 133.1875 -100.171875 C 134.613281 -101.171875 135.4375 -102.660156 135.65625 -104.640625 C 135.65625 -105.515625 135.328125 -106.171875 134.671875 -106.609375 C 134.671875 -108.816406 134.175781 -110.632812 133.1875 -112.0625 C 133.1875 -113.382812 132.472656 -114.484375 131.046875 -115.359375 C 129.828125 -115.910156 129.054688 -116.40625 128.734375 -116.84375 C 128.398438 -117.726562 128.453125 -118.882812 128.890625 -120.3125 C 129.222656 -121.300781 130.050781 -121.960938 131.375 -122.296875 C 132.363281 -122.628906 133.296875 -122.679688 134.171875 -122.453125 C 139.453125 -121.140625 143.195312 -117.894531 145.40625 -112.71875 C 146.394531 -110.300781 147 -108.429688 147.21875 -107.109375 C 147.21875 -106.117188 147.378906 -105.019531 147.703125 -103.8125 C 148.035156 -102.820312 148.09375 -101.003906 147.875 -98.359375 C 147.539062 -95.285156 146.71875 -93.195312 145.40625 -92.09375 C 143.414062 -90.332031 141.816406 -89.453125 140.609375 -89.453125 C 139.296875 -89.785156 138.140625 -89.566406 137.140625 -88.796875 C 136.148438 -88.023438 134.613281 -87.800781 132.53125 -88.125 C 131.207031 -88.457031 130.101562 -88.347656 129.21875 -87.796875 C 127.570312 -87.140625 125.59375 -87.195312 123.28125 -87.96875 C 119.976562 -88.1875 116.84375 -88.296875 113.875 -88.296875 C 111.894531 -88.953125 109.914062 -89.117188 107.9375 -88.796875 C 101.113281 -88.128906 96.382812 -88.179688 93.75 -88.953125 C 92.09375 -89.617188 90.660156 -89.785156 89.453125 -89.453125 C 87.796875 -89.117188 85.816406 -89.007812 83.515625 -89.125 C 81.203125 -89.78125 78.671875 -89.671875 75.921875 -88.796875 C 72.285156 -87.472656 68.925781 -86.976562 65.84375 -87.3125 Z M 14.03125 -93.40625 C 11.71875 -94.394531 10.394531 -96.101562 10.0625 -98.53125 C 9.84375 -100.726562 10.453125 -102.539062 11.890625 -103.96875 C 13.535156 -105.625 15.566406 -106.78125 17.984375 -107.4375 C 18.972656 -107.988281 19.851562 -108.15625 20.625 -107.9375 L 22.9375 -107.9375 C 23.601562 -108.269531 24.265625 -108.320312 24.921875 -108.09375 C 25.691406 -108.09375 26.351562 -108.207031 26.90625 -108.4375 C 28.332031 -108.757812 30.863281 -108.976562 34.5 -109.09375 C 43.40625 -109.09375 48.847656 -108.265625 50.828125 -106.609375 C 52.804688 -105.296875 53.796875 -103.316406 53.796875 -100.671875 C 53.796875 -98.691406 52.585938 -97.039062 50.171875 -95.71875 C 48.847656 -95.394531 47.414062 -95.175781 45.875 -95.0625 C 44.226562 -94.726562 42.851562 -94.175781 41.75 -93.40625 C 41.09375 -89.34375 40.488281 -85.273438 39.9375 -81.203125 C 39.9375 -80.535156 39.882812 -79.546875 39.78125 -78.234375 C 39.550781 -77.242188 39.4375 -76.304688 39.4375 -75.421875 C 39.4375 -74.765625 39.382812 -73.773438 39.28125 -72.453125 C 39.9375 -71.679688 40.648438 -70.742188 41.421875 -69.640625 C 45.710938 -69.640625 48.628906 -68.984375 50.171875 -67.671875 C 52.148438 -66.347656 53.140625 -64.363281 53.140625 -61.71875 C 53.140625 -59.738281 51.929688 -58.09375 49.515625 -56.78125 C 47.535156 -56.113281 45.222656 -55.890625 42.578125 -56.109375 C 42.242188 -56.109375 41.914062 -55.78125 41.59375 -55.125 L 39.109375 -52.640625 C 38.890625 -47.359375 38.117188 -43.835938 36.796875 -42.078125 C 35.804688 -41.085938 34.65625 -40.59375 33.34375 -40.59375 C 32.457031 -40.59375 31.6875 -41.363281 31.03125 -42.90625 C 29.488281 -45.550781 28.71875 -48.578125 28.71875 -51.984375 C 28.71875 -52.648438 28.660156 -53.253906 28.546875 -53.796875 C 28.546875 -54.023438 28.492188 -54.191406 28.390625 -54.296875 L 26.734375 -56.28125 C 26.078125 -55.84375 25.085938 -55.566406 23.765625 -55.453125 C 21.453125 -54.347656 18.867188 -54.019531 16.015625 -54.46875 C 13.703125 -55.457031 12.378906 -57.160156 12.046875 -59.578125 C 11.828125 -61.773438 12.429688 -63.59375 13.859375 -65.03125 C 16.828125 -68.332031 19.632812 -69.648438 22.28125 -68.984375 L 24.265625 -68.984375 C 24.921875 -68.984375 25.632812 -69.039062 26.40625 -69.15625 C 27.175781 -70.800781 27.5625 -75.695312 27.5625 -83.84375 C 27.226562 -89.445312 27.007812 -92.523438 26.90625 -93.078125 C 26.238281 -94.285156 25.6875 -95.003906 25.25 -95.234375 C 23.925781 -94.785156 22.769531 -94.507812 21.78125 -94.40625 C 19.46875 -93.300781 16.882812 -92.96875 14.03125 -93.40625 Z M 134.34375 9.25 C 133.132812 7.925781 131.59375 6.820312 129.71875 5.9375 C 127.738281 4.945312 125.59375 2.691406 123.28125 -0.828125 C 121.414062 -2.804688 118.0625 -3.851562 113.21875 -3.96875 C 112.882812 -3.96875 112.664062 -3.910156 112.5625 -3.796875 C 109.695312 -2.804688 107.109375 -2.640625 104.796875 -3.296875 C 103.148438 -3.960938 102.21875 -4.84375 102 -5.9375 C 102 -6.925781 102.328125 -7.695312 102.984375 -8.25 C 103.972656 -9.132812 104.960938 -9.578125 105.953125 -9.578125 C 106.285156 -9.578125 106.890625 -9.738281 107.765625 -10.0625 C 108.210938 -11.050781 108.707031 -11.988281 109.25 -12.875 C 109.582031 -14.082031 109.96875 -15.238281 110.40625 -16.34375 C 110.082031 -18.65625 109.3125 -21.1875 108.09375 -23.9375 C 108.09375 -25.144531 108.316406 -26.132812 108.765625 -26.90625 C 109.421875 -27.894531 110.351562 -28.332031 111.5625 -28.21875 C 112.664062 -27.78125 113.492188 -26.898438 114.046875 -25.578125 C 114.046875 -24.921875 114.648438 -24.148438 115.859375 -23.265625 C 117.179688 -22.492188 117.953125 -21.226562 118.171875 -19.46875 C 119.597656 -19.144531 121.140625 -18.757812 122.796875 -18.3125 C 123.453125 -19.851562 124.710938 -20.898438 126.578125 -21.453125 C 129.992188 -23.429688 132.472656 -26.070312 134.015625 -29.375 C 135.003906 -31.570312 136.765625 -33.390625 139.296875 -34.828125 C 140.941406 -35.703125 143.03125 -35.367188 145.5625 -33.828125 C 146.550781 -33.171875 147.210938 -32.070312 147.546875 -30.53125 C 147.546875 -29.875 147.65625 -29.101562 147.875 -28.21875 C 146.882812 -20.625 143.421875 -16.441406 137.484375 -15.671875 C 136.492188 -15.566406 135.5 -15.128906 134.5 -14.359375 C 133.1875 -13.035156 131.867188 -12.265625 130.546875 -12.046875 C 130.210938 -12.046875 129.882812 -11.9375 129.5625 -11.71875 L 130.046875 -8.75 C 135.660156 -4.789062 139.566406 -2.425781 141.765625 -1.65625 C 144.191406 -1.320312 146.171875 -0.710938 147.703125 0.171875 C 148.472656 0.828125 149.519531 1.265625 150.84375 1.484375 C 154.800781 1.816406 157.71875 2.914062 159.59375 4.78125 C 161.238281 5.445312 162.117188 6.382812 162.234375 7.59375 C 162.234375 8.25 162.671875 9.070312 163.546875 10.0625 C 164.210938 11.050781 164.101562 12.539062 163.21875 14.53125 C 161.90625 17.5 159.648438 19.09375 156.453125 19.3125 C 154.253906 19.3125 151.835938 18.707031 149.203125 17.5 C 147.878906 16.832031 146.445312 16.445312 144.90625 16.34375 C 141.601562 15.351562 138.082031 12.988281 134.34375 9.25 Z M 62.71875 -80.203125 C 63.039062 -80.535156 63.535156 -80.703125 64.203125 -80.703125 C 65.960938 -81.253906 73.390625 -81.363281 86.484375 -81.03125 C 89.117188 -80.707031 91.316406 -81.039062 93.078125 -82.03125 C 93.847656 -82.570312 95.003906 -82.84375 96.546875 -82.84375 C 107.109375 -83.832031 116.296875 -83.832031 124.109375 -82.84375 C 135.441406 -82.1875 142.097656 -81.195312 144.078125 -79.875 C 145.835938 -78.78125 146.773438 -77.019531 146.890625 -74.59375 C 146.890625 -72.832031 145.785156 -71.296875 143.578125 -69.984375 C 141.046875 -68.984375 138.019531 -69.035156 134.5 -70.140625 C 129.332031 -72.015625 123.941406 -72.507812 118.328125 -71.625 C 114.367188 -70.632812 110.410156 -70.691406 106.453125 -71.796875 C 104.578125 -72.453125 101.988281 -72.5625 98.6875 -72.125 C 95.164062 -71.457031 91.921875 -71.457031 88.953125 -72.125 C 85.328125 -72.125 82.191406 -71.738281 79.546875 -70.96875 C 75.691406 -69.3125 71.179688 -68.429688 66.015625 -68.328125 C 64.035156 -67.335938 61.78125 -67.0625 59.25 -67.5 C 57.050781 -68.488281 55.84375 -70.03125 55.625 -72.125 C 55.625 -73.988281 56.171875 -75.640625 57.265625 -77.078125 C 58.585938 -78.617188 60.40625 -79.660156 62.71875 -80.203125 Z M 84.671875 -13.03125 C 84.671875 -15.675781 85.054688 -17.550781 85.828125 -18.65625 C 88.128906 -21.507812 90.21875 -22.609375 92.09375 -21.953125 C 93.738281 -21.953125 94.894531 -20.90625 95.5625 -18.8125 C 98.195312 -13.863281 97.8125 -9.410156 94.40625 -5.453125 C 92.207031 -2.804688 91.488281 0.164062 92.25 3.46875 C 92.582031 3.570312 92.640625 3.957031 92.421875 4.625 C 92.085938 5.28125 92.304688 6.320312 93.078125 7.75 L 93.40625 8.25 C 97.039062 11.550781 100.125 11.9375 102.65625 9.40625 C 109.039062 4.457031 114.488281 1.984375 119 1.984375 C 120.09375 2.304688 120.914062 3.238281 121.46875 4.78125 C 121.90625 6.101562 121.410156 7.921875 119.984375 10.234375 C 118.992188 11.222656 117.125 12.320312 114.375 13.53125 C 112.175781 14.300781 109.972656 15.566406 107.765625 17.328125 C 106.453125 18.316406 105.078125 18.976562 103.640625 19.3125 C 102.765625 19.09375 101.832031 19.3125 100.84375 19.96875 C 99.300781 20.957031 96.769531 21.507812 93.25 21.625 C 87.632812 20.632812 83.398438 17.054688 80.546875 10.890625 C 80.210938 9.242188 80.320312 5.226562 80.875 -1.15625 C 80.875 -2.695312 81.144531 -3.851562 81.6875 -4.625 C 82.351562 -5.5 82.6875 -6.320312 82.6875 -7.09375 C 82.789062 -8.414062 83.117188 -9.460938 83.671875 -10.234375 C 84.109375 -11.222656 84.441406 -12.15625 84.671875 -13.03125 Z M 15.34375 -3.625 C 13.039062 -4.175781 11.28125 -5.222656 10.0625 -6.765625 C 9.1875 -8.421875 8.96875 -10.457031 9.40625 -12.875 C 10.175781 -15.1875 11.382812 -17 13.03125 -18.3125 C 14.789062 -19.632812 19.140625 -21.453125 26.078125 -23.765625 C 28.390625 -26.296875 30.203125 -29.320312 31.515625 -32.84375 C 32.515625 -36.03125 33.453125 -37.625 34.328125 -37.625 C 35.316406 -37.84375 36.304688 -37.019531 37.296875 -35.15625 C 38.953125 -32.507812 41.046875 -30.304688 43.578125 -28.546875 C 46.867188 -30.085938 49.945312 -30.195312 52.8125 -28.875 C 54.132812 -28.113281 54.90625 -26.578125 55.125 -24.265625 C 54.789062 -19.859375 51.65625 -17.710938 45.71875 -17.828125 C 42.414062 -17.054688 39.171875 -16.117188 35.984375 -15.015625 C 33.773438 -14.691406 32.066406 -13.867188 30.859375 -12.546875 C 29.984375 -11.554688 29.101562 -10.894531 28.21875 -10.5625 C 27.5625 -10.445312 26.898438 -9.894531 26.234375 -8.90625 C 25.910156 -8.25 24.921875 -7.257812 23.265625 -5.9375 C 20.628906 -4.289062 17.988281 -3.519531 15.34375 -3.625 Z M 104.796875 -98.53125 C 106.453125 -99.519531 107.71875 -100.398438 108.59375 -101.171875 L 108.59375 -110.078125 C 108.59375 -111.398438 108.648438 -112.335938 108.765625 -112.890625 C 108.765625 -113.546875 108.875 -113.984375 109.09375 -114.203125 C 107.4375 -114.535156 103.472656 -114.425781 97.203125 -113.875 C 98.960938 -111.125 99.570312 -107.273438 99.03125 -102.328125 C 99.03125 -102.210938 98.863281 -101.828125 98.53125 -101.171875 C 99.1875 -100.835938 99.734375 -100.453125 100.171875 -100.015625 C 100.503906 -100.015625 100.78125 -99.796875 101 -99.359375 C 101.664062 -99.359375 102.929688 -99.082031 104.796875 -98.53125 Z M 104.796875 -98.53125 "/></g></g></g><g fill="#ffc200" fill-opacity="1"><g transform="translate(189.27111, 318.841514)"><g><path d="M 48.6875 -54.953125 C 48.351562 -54.628906 47.96875 -54.191406 47.53125 -53.640625 C 46.207031 -52.867188 45.050781 -51.820312 44.0625 -50.5 L 44.0625 -48.1875 C 44.5 -43.894531 43.675781 -40.539062 41.59375 -38.125 C 40.382812 -37.132812 39.171875 -36.640625 37.953125 -36.640625 C 37.078125 -36.972656 36.3125 -37.742188 35.65625 -38.953125 C 34.4375 -40.929688 33.664062 -44.613281 33.34375 -50 C 33.34375 -50.226562 33.285156 -50.394531 33.171875 -50.5 C 32.515625 -51.820312 31.523438 -52.921875 30.203125 -53.796875 C 28.554688 -53.359375 27.070312 -53.03125 25.75 -52.8125 C 23.4375 -51.707031 20.847656 -51.378906 17.984375 -51.828125 C 15.679688 -52.816406 14.363281 -54.519531 14.03125 -56.9375 C 13.8125 -59.132812 14.414062 -60.953125 15.84375 -62.390625 C 17.488281 -64.035156 19.523438 -65.1875 21.953125 -65.84375 C 23.273438 -66.507812 24.320312 -66.734375 25.09375 -66.515625 L 27.890625 -66.515625 C 28.328125 -66.835938 28.878906 -66.890625 29.546875 -66.671875 C 30.859375 -68.546875 31.898438 -69.921875 32.671875 -70.796875 L 32.671875 -87.796875 C 30.472656 -89.773438 28.9375 -90.929688 28.0625 -91.265625 C 26.519531 -90.828125 25.085938 -90.550781 23.765625 -90.4375 C 21.453125 -89.34375 18.867188 -89.015625 16.015625 -89.453125 C 13.703125 -90.441406 12.378906 -92.144531 12.046875 -94.5625 C 11.828125 -96.769531 12.429688 -98.585938 13.859375 -100.015625 C 16.503906 -102.878906 21.734375 -104.3125 29.546875 -104.3125 C 30.535156 -104.3125 31.46875 -104.472656 32.34375 -104.796875 C 33.007812 -105.347656 34.273438 -105.515625 36.140625 -105.296875 C 38.566406 -105.628906 40.769531 -105.796875 42.75 -105.796875 C 52.757812 -105.796875 58.753906 -104.96875 60.734375 -103.3125 C 62.710938 -101.988281 63.703125 -100.007812 63.703125 -97.375 C 63.703125 -95.394531 62.492188 -93.742188 60.078125 -92.421875 C 58.097656 -91.765625 55.785156 -91.546875 53.140625 -91.765625 C 49.953125 -90.773438 47.695312 -89.675781 46.375 -88.46875 C 45.5 -85.820312 45.0625 -82.519531 45.0625 -78.5625 C 45.0625 -77.789062 44.945312 -76.742188 44.71875 -75.421875 C 44.5 -74.429688 44.445312 -73.5 44.5625 -72.625 C 44.5625 -72.289062 44.503906 -71.789062 44.390625 -71.125 C 44.722656 -71.019531 45.054688 -70.640625 45.390625 -69.984375 C 46.046875 -69.316406 46.867188 -68.546875 47.859375 -67.671875 C 53.910156 -67.671875 57.765625 -67.007812 59.421875 -65.6875 C 61.398438 -64.363281 62.390625 -62.382812 62.390625 -59.75 C 62.390625 -57.769531 61.175781 -56.117188 58.75 -54.796875 C 55.894531 -53.804688 52.539062 -53.859375 48.6875 -54.953125 Z M 127.078125 -82.1875 C 123.453125 -82.519531 120.976562 -82.410156 119.65625 -81.859375 C 115.695312 -80.210938 113.550781 -79.003906 113.21875 -78.234375 C 113.21875 -77.785156 113.160156 -77.066406 113.046875 -76.078125 C 112.722656 -74.097656 112.453125 -72.175781 112.234375 -70.3125 C 112.234375 -67.007812 111.570312 -64.203125 110.25 -61.890625 C 108.925781 -59.910156 107.273438 -59.140625 105.296875 -59.578125 C 104.085938 -60.234375 103.484375 -61.441406 103.484375 -63.203125 C 103.484375 -66.503906 102.988281 -69.695312 102 -72.78125 C 101.664062 -73.988281 101.554688 -75.144531 101.671875 -76.25 C 100.785156 -77.457031 99.570312 -78.445312 98.03125 -79.21875 C 96.164062 -79.21875 94.296875 -79.328125 92.421875 -79.546875 C 89.785156 -79.878906 87.253906 -79.828125 84.828125 -79.390625 C 82.847656 -79.273438 81.035156 -79.273438 79.390625 -79.390625 C 77.734375 -79.710938 75.859375 -79.765625 73.765625 -79.546875 C 71.898438 -79.546875 69.867188 -80.039062 67.671875 -81.03125 C 65.796875 -82.019531 64.75 -83.453125 64.53125 -85.328125 C 64.53125 -86.972656 65.132812 -88.398438 66.34375 -89.609375 C 68 -90.828125 70.203125 -91.4375 72.953125 -91.4375 C 74.929688 -91.4375 77.078125 -91.765625 79.390625 -92.421875 L 97.046875 -92.421875 C 98.691406 -93.960938 100.285156 -95.613281 101.828125 -97.375 C 101.828125 -100.5625 101.390625 -104.023438 100.515625 -107.765625 C 99.847656 -111.285156 100.066406 -114.257812 101.171875 -116.6875 C 102.597656 -119.65625 104.960938 -121.25 108.265625 -121.46875 C 110.910156 -121.6875 113.113281 -120.367188 114.875 -117.515625 C 115.632812 -116.191406 115.578125 -113.273438 114.703125 -108.765625 C 114.148438 -104.691406 113.875 -101.003906 113.875 -97.703125 C 115.851562 -95.941406 117.722656 -94.507812 119.484375 -93.40625 C 122.898438 -93.632812 125.707031 -94.019531 127.90625 -94.5625 C 129.882812 -95.226562 133.679688 -95.503906 139.296875 -95.390625 C 143.253906 -95.390625 146.441406 -94.507812 148.859375 -92.75 C 150.179688 -91.976562 151.007812 -90.21875 151.34375 -87.46875 C 151.445312 -86.375 150.785156 -84.945312 149.359375 -83.1875 C 147.710938 -81.425781 146.0625 -80.546875 144.40625 -80.546875 C 143.75 -80.765625 142.59375 -80.765625 140.9375 -80.546875 C 139.945312 -79.878906 135.328125 -80.425781 127.078125 -82.1875 Z M 102.15625 -45.0625 C 102.488281 -46.925781 102.765625 -48.738281 102.984375 -50.5 C 102.984375 -51.820312 103.148438 -52.921875 103.484375 -53.796875 C 104.578125 -56.003906 105.734375 -57.160156 106.953125 -57.265625 C 108.265625 -57.265625 109.640625 -55.613281 111.078125 -52.3125 C 112.503906 -49.238281 113.109375 -45.554688 112.890625 -41.265625 C 112.554688 -38.953125 112.445312 -36.253906 112.5625 -33.171875 C 113 -31.078125 113 -28.878906 112.5625 -26.578125 C 112.34375 -24.921875 112.34375 -23.046875 112.5625 -20.953125 C 113.21875 -18.203125 113.328125 -15.675781 112.890625 -13.375 C 112.003906 -8.632812 112.113281 -2.472656 113.21875 5.109375 C 113.550781 12.378906 112.453125 17.222656 109.921875 19.640625 C 108.378906 20.742188 106.78125 21.296875 105.125 21.296875 C 103.582031 21.066406 102.046875 20.347656 100.515625 19.140625 C 97.867188 15.179688 97.039062 10.007812 98.03125 3.625 C 99.351562 0 99.90625 -3.078125 99.6875 -5.609375 C 99.6875 -8.472656 99.90625 -11.003906 100.34375 -13.203125 C 101 -15.179688 101.21875 -17.4375 101 -19.96875 C 100.78125 -22.5 100.890625 -25.03125 101.328125 -27.5625 C 101.660156 -30.53125 101.773438 -33.5 101.671875 -36.46875 C 101.335938 -39.769531 101.5 -42.632812 102.15625 -45.0625 Z M 17.5 1.328125 C 15.1875 0.773438 13.367188 -0.378906 12.046875 -2.140625 C 11.390625 -3.796875 11.28125 -5.941406 11.71875 -8.578125 C 12.488281 -11.222656 13.804688 -13.09375 15.671875 -14.1875 C 17.765625 -15.84375 20.242188 -16.890625 23.109375 -17.328125 C 24.429688 -17.328125 25.363281 -17.601562 25.90625 -18.15625 C 27.007812 -19.03125 28.332031 -19.523438 29.875 -19.640625 C 32.84375 -22.609375 34.820312 -25.523438 35.8125 -28.390625 C 36.914062 -31.359375 37.960938 -32.898438 38.953125 -33.015625 C 39.941406 -33.015625 41.039062 -32.132812 42.25 -30.375 C 42.90625 -29.601562 44.832031 -27.507812 48.03125 -24.09375 C 48.132812 -24.644531 48.296875 -24.753906 48.515625 -24.421875 C 53.910156 -26.296875 58.425781 -26.570312 62.0625 -25.25 C 63.488281 -24.257812 64.253906 -22.445312 64.359375 -19.8125 C 63.816406 -15.1875 60.242188 -12.925781 53.640625 -13.03125 C 51.660156 -13.03125 49.457031 -12.484375 47.03125 -11.390625 C 45.820312 -11.054688 44.117188 -10.722656 41.921875 -10.390625 C 39.273438 -10.390625 37.128906 -9.566406 35.484375 -7.921875 C 34.492188 -6.929688 33.394531 -6.21875 32.1875 -5.78125 C 31.195312 -5.445312 30.367188 -4.84375 29.703125 -3.96875 C 29.148438 -2.96875 27.941406 -1.863281 26.078125 -0.65625 C 23.109375 0.988281 20.25 1.648438 17.5 1.328125 Z M 127.078125 -17.984375 C 123.773438 -22.609375 121.847656 -25.800781 121.296875 -27.5625 C 121.296875 -28.882812 121.957031 -30.257812 123.28125 -31.6875 C 123.945312 -32.34375 125.046875 -32.5625 126.578125 -32.34375 C 128.566406 -32.34375 129.945312 -31.796875 130.71875 -30.703125 C 133.019531 -26.734375 134.78125 -24.421875 136 -23.765625 C 142.925781 -20.023438 146.5 -17.828125 146.71875 -17.171875 C 147.707031 -15.410156 149.082031 -14.03125 150.84375 -13.03125 C 154.582031 -11.382812 157.222656 -9.40625 158.765625 -7.09375 C 160.085938 -5.113281 160.691406 -2.96875 160.578125 -0.65625 C 160.578125 1.425781 159.921875 3.1875 158.609375 4.625 C 157.722656 5.945312 156.179688 6.769531 153.984375 7.09375 C 152.328125 7.207031 150.84375 7.046875 149.53125 6.609375 C 147 5.390625 145.128906 3.738281 143.921875 1.65625 C 143.585938 0.769531 142.265625 -0.382812 139.953125 -1.8125 C 134.335938 -5.332031 130.648438 -9.625 128.890625 -14.6875 C 128.566406 -16.007812 127.960938 -17.109375 127.078125 -17.984375 Z M 79.546875 -25.09375 C 81.203125 -29.269531 82.960938 -31.960938 84.828125 -33.171875 C 87.140625 -34.492188 89.007812 -34.601562 90.4375 -33.5 C 91.875 -32.507812 92.367188 -30.859375 91.921875 -28.546875 C 91.703125 -26.242188 90.988281 -24.375 89.78125 -22.9375 C 89.125 -21.945312 88.628906 -21.125 88.296875 -20.46875 C 87.410156 -15.40625 85.707031 -11.222656 83.1875 -7.921875 C 81.195312 -4.515625 78.554688 -1.765625 75.265625 0.328125 C 73.609375 1.316406 72.285156 2.582031 71.296875 4.125 C 70.304688 5.78125 68.710938 6.988281 66.515625 7.75 C 64.640625 8.414062 63.265625 8.53125 62.390625 8.09375 C 59.410156 6.101562 57.867188 5.054688 57.765625 4.953125 C 55.890625 2.085938 56 -0.769531 58.09375 -3.625 C 58.75 -4.289062 59.191406 -5.007812 59.421875 -5.78125 C 59.742188 -6.65625 60.507812 -7.367188 61.71875 -7.921875 C 63.15625 -8.910156 64.644531 -10.285156 66.1875 -12.046875 C 68.164062 -14.023438 69.8125 -15.347656 71.125 -16.015625 C 72.5625 -16.671875 73.554688 -17.550781 74.109375 -18.65625 C 74.765625 -19.96875 75.644531 -20.898438 76.75 -21.453125 C 78.0625 -22.660156 78.992188 -23.875 79.546875 -25.09375 Z M 137.140625 -67.34375 C 139.453125 -68.332031 140.773438 -68.550781 141.109375 -68 C 141.765625 -67.664062 142.535156 -67.445312 143.421875 -67.34375 C 144.410156 -67.664062 145.507812 -66.453125 146.71875 -63.703125 C 147.488281 -61.941406 147.488281 -60.070312 146.71875 -58.09375 C 145.394531 -56 143.910156 -54.296875 142.265625 -52.984375 C 141.273438 -52.316406 140.445312 -51.546875 139.78125 -50.671875 C 135.5 -47.703125 132.035156 -45.992188 129.390625 -45.546875 C 126.753906 -45.546875 124.992188 -46.097656 124.109375 -47.203125 C 123.117188 -48.078125 123.117188 -49.890625 124.109375 -52.640625 C 125.097656 -57.597656 129.441406 -62.5 137.140625 -67.34375 Z M 71.125 -54.296875 C 69.914062 -56.273438 69.421875 -57.484375 69.640625 -57.921875 C 69.753906 -58.804688 69.753906 -59.632812 69.640625 -60.40625 C 69.316406 -61.28125 70.3125 -62.597656 72.625 -64.359375 C 74.269531 -65.679688 76.082031 -66.066406 78.0625 -65.515625 C 80.707031 -64.859375 82.796875 -63.707031 84.328125 -62.0625 C 89.722656 -58.976562 92.863281 -55.566406 93.75 -51.828125 C 94.40625 -49.515625 94.289062 -47.695312 93.40625 -46.375 C 92.75 -45.050781 90.988281 -44.613281 88.125 -45.0625 C 83.175781 -45.0625 77.507812 -48.140625 71.125 -54.296875 Z M 127.90625 -108.921875 C 127.6875 -111.234375 127.960938 -112.992188 128.734375 -114.203125 C 132.140625 -117.066406 134.007812 -118.5 134.34375 -118.5 C 135.113281 -118.5 135.773438 -118.664062 136.328125 -119 C 137.972656 -119.320312 140.0625 -118.109375 142.59375 -115.359375 C 144.238281 -114.367188 145.226562 -111.894531 145.5625 -107.9375 C 145.675781 -105.84375 146.007812 -103.476562 146.5625 -100.84375 C 146.664062 -99.519531 145.945312 -98.363281 144.40625 -97.375 C 142.757812 -96.9375 141.441406 -97.046875 140.453125 -97.703125 C 138.796875 -99.679688 136.265625 -101.382812 132.859375 -102.8125 C 129.554688 -103.8125 127.90625 -105.847656 127.90625 -108.921875 Z M 127.90625 -108.921875 "/></g></g></g><g fill="#ffc200" fill-opacity="1"><g transform="translate(17.06963, 151.890243)"><g><path d="M 81.71875 -47.390625 C 83.375 -51.234375 84.972656 -53.539062 86.515625 -54.3125 C 88.828125 -55.53125 91.082031 -55.3125 93.28125 -53.65625 C 93.613281 -53.550781 93.890625 -53.164062 94.109375 -52.5 C 95.097656 -52.5 96.195312 -52.554688 97.40625 -52.671875 C 98.84375 -53.328125 100.492188 -53.546875 102.359375 -53.328125 C 103.679688 -53.328125 104.617188 -53.382812 105.171875 -53.5 C 106.597656 -54.375 107.753906 -54.703125 108.640625 -54.484375 C 109.078125 -54.484375 109.625 -54.59375 110.28125 -54.8125 C 112.039062 -55.695312 113.582031 -56.023438 114.90625 -55.796875 C 116.34375 -55.691406 117.832031 -55.691406 119.375 -55.796875 C 121.457031 -56.460938 123.4375 -56.628906 125.3125 -56.296875 C 126.300781 -56.296875 127.125 -56.351562 127.78125 -56.46875 C 128.882812 -56.46875 129.765625 -56.191406 130.421875 -55.640625 C 131.421875 -54.972656 132.523438 -54.695312 133.734375 -54.8125 C 135.378906 -55.144531 136.695312 -55.035156 137.6875 -54.484375 C 139.007812 -54.046875 139.835938 -53.332031 140.171875 -52.34375 C 140.609375 -51.675781 141.597656 -50.847656 143.140625 -49.859375 C 145.785156 -48.753906 147.492188 -46.550781 148.265625 -43.25 C 148.921875 -41.601562 148.972656 -39.789062 148.421875 -37.8125 C 148.097656 -36.707031 147.660156 -35.769531 147.109375 -35 C 146.554688 -33.894531 146.003906 -32.628906 145.453125 -31.203125 C 145.453125 -29.773438 145.394531 -28.566406 145.28125 -27.578125 C 145.0625 -25.816406 145.007812 -23.890625 145.125 -21.796875 C 145.226562 -20.472656 145.0625 -19.316406 144.625 -18.328125 L 144.625 -16.34375 C 144.738281 -15.6875 144.738281 -14.804688 144.625 -13.703125 L 144.625 -11.0625 C 144.957031 -9.082031 145.066406 -7.320312 144.953125 -5.78125 C 144.734375 -3.351562 144.84375 -1.484375 145.28125 -0.171875 C 146.28125 2.910156 146.890625 5.5 147.109375 7.59375 C 147.109375 8.03125 147.160156 8.632812 147.265625 9.40625 C 147.265625 15.351562 147.15625 18.820312 146.9375 19.8125 C 146.71875 20.582031 146.332031 21.296875 145.78125 21.953125 C 144.570312 23.273438 143.03125 23.9375 141.15625 23.9375 C 139.613281 23.9375 138.238281 23.113281 137.03125 21.46875 C 135.820312 19.476562 135.21875 17.878906 135.21875 16.671875 C 135.21875 15.460938 135.109375 14.472656 134.890625 13.703125 C 134.671875 12.816406 134.671875 11.992188 134.890625 11.234375 C 135.210938 10.234375 135.210938 9.1875 134.890625 8.09375 C 134.335938 6.21875 134.113281 4.894531 134.21875 4.125 C 134.332031 1.8125 134.28125 -0.222656 134.0625 -1.984375 C 133.070312 -2.640625 132.023438 -3.132812 130.921875 -3.46875 C 128.609375 -3.46875 126.296875 -3.632812 123.984375 -3.96875 C 122.117188 -4.289062 113.148438 -3.90625 97.078125 -2.8125 C 92.234375 -2.039062 89.316406 -0.441406 88.328125 1.984375 C 87.671875 2.972656 87.226562 3.6875 87 4.125 C 86.78125 4.457031 86.507812 4.953125 86.1875 5.609375 C 85.851562 6.378906 85.628906 7.257812 85.515625 8.25 C 83.535156 13.539062 81.390625 17.78125 79.078125 20.96875 C 77.097656 22.289062 75.226562 23.113281 73.46875 23.4375 C 72.144531 23.4375 70.601562 22.941406 68.84375 21.953125 C 66.863281 19.421875 66.09375 16.5625 66.53125 13.375 C 66.863281 12.050781 67.46875 10.894531 68.34375 9.90625 C 71.644531 6.382812 73.410156 4.179688 73.640625 3.296875 C 73.640625 2.640625 73.910156 2.203125 74.453125 1.984375 C 76.109375 -0.984375 77.046875 -2.96875 77.265625 -3.96875 C 77.597656 -6.601562 78.535156 -9.023438 80.078125 -11.234375 C 80.734375 -12.546875 81.007812 -13.972656 80.90625 -15.515625 L 81.234375 -17.171875 C 81.335938 -18.046875 81.445312 -18.757812 81.5625 -19.3125 C 81.5625 -20.632812 81.613281 -21.738281 81.71875 -22.625 C 82.050781 -24.925781 81.394531 -29.492188 79.75 -36.328125 C 79.414062 -40.285156 80.070312 -43.972656 81.71875 -47.390625 Z M 86.1875 -71.328125 C 89.269531 -71.328125 92.078125 -71.765625 94.609375 -72.640625 C 97.910156 -73.847656 100.441406 -74.125 102.203125 -73.46875 C 103.628906 -73.132812 104.945312 -73.132812 106.15625 -73.46875 C 105.9375 -75.125 105.9375 -77.101562 106.15625 -79.40625 C 105.5 -80.070312 104.675781 -80.679688 103.6875 -81.234375 C 98.726562 -80.898438 95.863281 -80.84375 95.09375 -81.0625 L 93.453125 -81.0625 C 87.503906 -80.289062 83.375 -80.457031 81.0625 -81.5625 C 79.414062 -82.769531 78.535156 -84.3125 78.421875 -86.1875 C 78.421875 -87.832031 79.191406 -89.316406 80.734375 -90.640625 C 83.703125 -93.285156 87.828125 -93.671875 93.109375 -91.796875 C 95.097656 -91.460938 96.972656 -91.296875 98.734375 -91.296875 L 99.21875 -91.296875 C 102.96875 -93.273438 105.5 -94.875 106.8125 -96.09375 L 107.640625 -100.546875 C 106.984375 -100.878906 105.171875 -100.878906 102.203125 -100.546875 C 98.015625 -100.109375 94.984375 -99.941406 93.109375 -100.046875 L 91.296875 -100.046875 C 84.472656 -99.273438 80.070312 -99.382812 78.09375 -100.375 C 76.113281 -101.695312 75.125 -103.296875 75.125 -105.171875 C 75.125 -107.035156 75.894531 -108.6875 77.4375 -110.125 C 79.082031 -111.445312 81.003906 -112.21875 83.203125 -112.4375 C 85.515625 -112.65625 87.992188 -112.320312 90.640625 -111.4375 C 91.628906 -111.4375 95.703125 -111.546875 102.859375 -111.765625 C 104.179688 -111.765625 105.335938 -111.929688 106.328125 -112.265625 C 105.660156 -116.890625 105.878906 -120.140625 106.984375 -122.015625 C 108.304688 -123.992188 109.847656 -125.257812 111.609375 -125.8125 C 113.585938 -126.132812 115.179688 -125.859375 116.390625 -124.984375 C 118.046875 -123.878906 118.984375 -122.28125 119.203125 -120.1875 C 119.535156 -118.207031 119.535156 -115.785156 119.203125 -112.921875 C 119.972656 -112.921875 120.6875 -112.8125 121.34375 -112.59375 C 123.332031 -112.488281 124.597656 -112.488281 125.140625 -112.59375 C 126.796875 -113.582031 128.671875 -114.023438 130.765625 -113.921875 C 133.179688 -113.585938 135.378906 -113.53125 137.359375 -113.75 C 140.003906 -114.082031 142.375 -113.585938 144.46875 -112.265625 C 146.78125 -110.941406 147.988281 -109.457031 148.09375 -107.8125 C 148.09375 -106.488281 147.488281 -105.164062 146.28125 -103.84375 C 142.425781 -100.539062 136.207031 -99.769531 127.625 -101.53125 C 126.957031 -101.75 126.351562 -101.75 125.8125 -101.53125 L 123.65625 -101.53125 C 123.332031 -101.53125 121.460938 -101.585938 118.046875 -101.703125 L 118.046875 -99.390625 C 118.378906 -97.078125 118.546875 -95.425781 118.546875 -94.4375 C 119.535156 -94 120.414062 -93.285156 121.1875 -92.296875 C 123.164062 -92.179688 124.375 -92.179688 124.8125 -92.296875 C 126.25 -93.171875 127.957031 -93.5 129.9375 -93.28125 C 132.25 -93.164062 134.285156 -93.109375 136.046875 -93.109375 C 138.359375 -93.441406 140.613281 -92.945312 142.8125 -91.625 C 144.90625 -90.3125 146.003906 -88.882812 146.109375 -87.34375 C 146.109375 -86.238281 145.503906 -85.023438 144.296875 -83.703125 C 140.660156 -80.617188 134.828125 -79.957031 126.796875 -81.71875 C 126.242188 -81.945312 125.691406 -81.945312 125.140625 -81.71875 C 124.148438 -81.71875 123.492188 -81.773438 123.171875 -81.890625 L 122.171875 -82.0625 C 120.847656 -81.289062 119.800781 -80.519531 119.03125 -79.75 C 119.144531 -78.75 119.257812 -77.425781 119.375 -75.78125 C 121.789062 -76.332031 124.265625 -76.332031 126.796875 -75.78125 C 129.765625 -74.789062 132.1875 -74.40625 134.0625 -74.625 C 136.375 -74.625 138.628906 -74.347656 140.828125 -73.796875 C 142.804688 -73.460938 144.84375 -73.351562 146.9375 -73.46875 C 148.914062 -73.800781 151.171875 -73.582031 153.703125 -72.8125 C 155.691406 -72.039062 157.234375 -70.773438 158.328125 -69.015625 C 159.316406 -67.035156 159.703125 -65.21875 159.484375 -63.5625 C 158.492188 -61.144531 156.179688 -59.382812 152.546875 -58.28125 C 148.585938 -57.945312 145.453125 -58.332031 143.140625 -59.4375 C 140.828125 -59.769531 138.1875 -60.648438 135.21875 -62.078125 C 132.351562 -63.617188 129.765625 -64.113281 127.453125 -63.5625 C 124.921875 -63.226562 122.554688 -63.394531 120.359375 -64.0625 C 119.703125 -64.382812 118.929688 -64.492188 118.046875 -64.390625 C 115.847656 -64.273438 113.921875 -64.21875 112.265625 -64.21875 C 109.398438 -63.226562 107.203125 -62.84375 105.671875 -63.0625 C 104.347656 -63.394531 102.96875 -63.234375 101.53125 -62.578125 C 99.882812 -61.804688 97.242188 -61.085938 93.609375 -60.421875 C 92.066406 -60.316406 91.019531 -59.929688 90.46875 -59.265625 C 89.476562 -58.828125 88.269531 -58.441406 86.84375 -58.109375 C 85.1875 -58.109375 83.753906 -57.613281 82.546875 -56.625 C 80.015625 -55.96875 77.265625 -55.804688 74.296875 -56.140625 C 71.984375 -57.015625 70.273438 -58.054688 69.171875 -59.265625 C 67.859375 -61.910156 67.53125 -64.28125 68.1875 -66.375 C 69.175781 -68.351562 70.769531 -69.78125 72.96875 -70.65625 C 76.269531 -71.65625 80.675781 -71.878906 86.1875 -71.328125 Z M 47.046875 10.5625 C 47.378906 17.164062 46.28125 21.789062 43.75 24.4375 C 42.425781 25.425781 40.882812 25.921875 39.125 25.921875 C 37.800781 25.703125 36.375 24.988281 34.84375 23.78125 C 32.195312 20.476562 31.425781 15.578125 32.53125 9.078125 C 33.84375 4.898438 34.390625 1.429688 34.171875 -1.328125 C 34.171875 -4.628906 34.394531 -7.546875 34.84375 -10.078125 C 35.5 -12.710938 35.660156 -15.296875 35.328125 -17.828125 C 35.109375 -20.472656 35.054688 -22.894531 35.171875 -25.09375 C 34.617188 -26.082031 34.066406 -27.019531 33.515625 -27.90625 C 33.296875 -27.789062 33.078125 -27.238281 32.859375 -26.25 C 32.859375 -25.8125 32.363281 -25.097656 31.375 -24.109375 C 31.039062 -23.660156 30.765625 -22.890625 30.546875 -21.796875 C 29.222656 -19.148438 27.734375 -17.28125 26.078125 -16.1875 C 25.203125 -16.070312 24.101562 -14.859375 22.78125 -12.546875 C 21.132812 -10.566406 19.316406 -8.914062 17.328125 -7.59375 C 15.023438 -6.488281 12.878906 -5.992188 10.890625 -6.109375 C 8.910156 -6.441406 7.097656 -7.597656 5.453125 -9.578125 C 4.785156 -10.898438 4.835938 -12.828125 5.609375 -15.359375 C 6.597656 -17.671875 8.359375 -19.429688 10.890625 -20.640625 C 14.960938 -22.953125 17.609375 -24.988281 18.828125 -26.75 C 19.148438 -27.300781 19.695312 -27.796875 20.46875 -28.234375 C 21.570312 -29.441406 25.039062 -34.445312 30.875 -43.25 C 30.976562 -43.800781 31.195312 -44.296875 31.53125 -44.734375 C 33.289062 -47.046875 34.832031 -49.523438 36.15625 -52.171875 C 36.269531 -52.503906 36.4375 -52.78125 36.65625 -53 L 37.140625 -54.984375 C 38.242188 -56.960938 39.398438 -58.003906 40.609375 -58.109375 C 41.710938 -58.109375 43.035156 -56.570312 44.578125 -53.5 C 45.234375 -51.84375 45.726562 -49.96875 46.0625 -47.875 C 46.394531 -47.769531 46.835938 -47.492188 47.390625 -47.046875 C 48.703125 -46.390625 49.632812 -45.238281 50.1875 -43.59375 C 51.175781 -41.601562 53.320312 -39.675781 56.625 -37.8125 C 58.0625 -37.144531 59.050781 -36.375 59.59375 -35.5 C 60.695312 -33.519531 61.851562 -32.085938 63.0625 -31.203125 C 65.050781 -29.878906 66.097656 -27.734375 66.203125 -24.765625 C 66.316406 -22.015625 65.820312 -20.085938 64.71875 -18.984375 C 63.84375 -18.328125 62.46875 -18.050781 60.59375 -18.15625 C 58.613281 -18.707031 56.628906 -19.703125 54.640625 -21.140625 C 51.335938 -24.429688 49.304688 -27.398438 48.546875 -30.046875 C 47.546875 -29.390625 46.660156 -28.398438 45.890625 -27.078125 C 45.890625 -22.671875 45.945312 -20.140625 46.0625 -19.484375 L 46.0625 -9.90625 C 45.84375 -2.96875 46.171875 3.851562 47.046875 10.5625 Z M 34.34375 -113.75 C 33.675781 -117.269531 33.894531 -120.078125 35 -122.171875 C 36.320312 -125.140625 38.523438 -126.679688 41.609375 -126.796875 C 44.242188 -127.015625 46.332031 -125.804688 47.875 -123.171875 C 48.863281 -121.734375 48.863281 -118.375 47.875 -113.09375 C 47.21875 -107.8125 46.890625 -103.242188 46.890625 -99.390625 C 47.546875 -96.972656 47.546875 -94.609375 46.890625 -92.296875 C 46.554688 -90.640625 46.664062 -88.820312 47.21875 -86.84375 C 47.21875 -85.851562 47.109375 -84.695312 46.890625 -83.375 C 47.660156 -82.71875 48.648438 -81.726562 49.859375 -80.40625 C 51.617188 -80.40625 53.328125 -80.625 54.984375 -81.0625 C 58.285156 -82.269531 61.203125 -82.269531 63.734375 -81.0625 C 66.046875 -79.738281 67.363281 -77.535156 67.6875 -74.453125 C 67.6875 -74.128906 67.632812 -73.632812 67.53125 -72.96875 C 65.988281 -68.019531 62.90625 -66.476562 58.28125 -68.34375 C 52.332031 -69.34375 48.476562 -69.070312 46.71875 -67.53125 C 46.0625 -67.195312 45.070312 -65.546875 43.75 -62.578125 C 42.425781 -60.585938 40.832031 -59.867188 38.96875 -60.421875 C 37.976562 -60.972656 37.367188 -62.128906 37.140625 -63.890625 C 37.140625 -64.222656 37.085938 -64.5 36.984375 -64.71875 C 34.015625 -67.25 29.613281 -67.414062 23.78125 -65.21875 C 19.925781 -63.894531 16.507812 -63.726562 13.53125 -64.71875 C 11.550781 -66.375 10.398438 -68.410156 10.078125 -70.828125 C 10.179688 -73.023438 11.0625 -75.003906 12.71875 -76.765625 C 14.363281 -78.753906 16.5625 -79.304688 19.3125 -78.421875 C 22.0625 -77.765625 25.695312 -78.207031 30.21875 -79.75 C 30.539062 -79.96875 31.035156 -80.078125 31.703125 -80.078125 C 32.796875 -81.285156 34.171875 -83.648438 35.828125 -87.171875 C 35.492188 -91.023438 35.382812 -93.554688 35.5 -94.765625 C 36.15625 -100.265625 35.769531 -106.59375 34.34375 -113.75 Z M 129.265625 -15.6875 C 130.921875 -16.894531 132.351562 -17.941406 133.5625 -18.828125 C 133.5625 -19.816406 133.617188 -21.082031 133.734375 -22.625 C 133.835938 -25.15625 133.835938 -27.300781 133.734375 -29.0625 C 133.734375 -30.375 133.785156 -31.472656 133.890625 -32.359375 C 134.222656 -36.316406 133.453125 -39.289062 131.578125 -41.28125 C 127.398438 -44.800781 123.878906 -45.953125 121.015625 -44.734375 C 119.472656 -44.296875 117.4375 -44.242188 114.90625 -44.578125 C 111.9375 -45.128906 108.800781 -44.632812 105.5 -43.09375 C 104.289062 -42.425781 103.242188 -42.09375 102.359375 -42.09375 C 101.367188 -42.425781 100.210938 -42.316406 98.890625 -41.765625 C 96.910156 -40.773438 94.929688 -40.117188 92.953125 -39.796875 C 91.742188 -38.359375 91.140625 -37.144531 91.140625 -36.15625 C 91.242188 -34.507812 91.242188 -33.242188 91.140625 -32.359375 C 91.140625 -30.929688 91.300781 -29.554688 91.625 -28.234375 C 92.070312 -26.472656 92.179688 -24.4375 91.953125 -22.125 C 91.628906 -21.46875 91.46875 -20.476562 91.46875 -19.15625 L 94.765625 -14.203125 C 96.421875 -14.085938 97.851562 -14.195312 99.0625 -14.53125 C 100.382812 -14.863281 101.757812 -14.804688 103.1875 -14.359375 C 104.613281 -14.035156 106.265625 -14.09375 108.140625 -14.53125 C 109.460938 -15.1875 111.222656 -15.296875 113.421875 -14.859375 C 115.179688 -14.523438 117.21875 -14.632812 119.53125 -15.1875 C 121.507812 -15.519531 124.753906 -15.6875 129.265625 -15.6875 Z M 11.890625 -102.359375 C 10.898438 -104.234375 10.347656 -106.050781 10.234375 -107.8125 C 10.347656 -109.675781 11.503906 -111.546875 13.703125 -113.421875 C 15.023438 -114.628906 16.617188 -114.960938 18.484375 -114.421875 C 20.578125 -114.085938 22.394531 -112.816406 23.9375 -110.609375 C 24.925781 -109.515625 25.53125 -107.8125 25.75 -105.5 C 26.082031 -104.394531 26.523438 -103.019531 27.078125 -101.375 C 27.410156 -100.601562 27.578125 -99.664062 27.578125 -98.5625 C 27.578125 -97.789062 27.738281 -96.742188 28.0625 -95.421875 C 29.382812 -92.015625 29.441406 -88.769531 28.234375 -85.6875 C 27.023438 -83.269531 25.648438 -82.113281 24.109375 -82.21875 C 22.785156 -82.4375 21.679688 -83.425781 20.796875 -85.1875 C 19.804688 -88.050781 18.765625 -89.703125 17.671875 -90.140625 C 16.679688 -92.117188 15.742188 -93.9375 14.859375 -95.59375 C 14.203125 -97.90625 13.210938 -100.160156 11.890625 -102.359375 Z M 55.96875 -105.171875 C 56.300781 -107.484375 56.90625 -109.242188 57.78125 -110.453125 C 59.101562 -111.773438 61.140625 -112.710938 63.890625 -113.265625 C 65.546875 -113.484375 67.03125 -112.820312 68.34375 -111.28125 C 69.664062 -109.625 70.4375 -107.53125 70.65625 -105 C 70.65625 -104.007812 70.269531 -102.742188 69.5 -101.203125 C 69.175781 -100.546875 68.789062 -99.5 68.34375 -98.0625 C 68.34375 -97.625 68.070312 -97.019531 67.53125 -96.25 C 66.976562 -95.8125 66.59375 -95.097656 66.375 -94.109375 C 65.382812 -90.804688 63.566406 -88.164062 60.921875 -86.1875 C 58.609375 -84.863281 56.789062 -84.695312 55.46875 -85.6875 C 54.476562 -86.675781 54.203125 -88.109375 54.640625 -89.984375 C 55.304688 -92.953125 55.421875 -94.878906 54.984375 -95.765625 C 54.984375 -95.984375 55.3125 -99.117188 55.96875 -105.171875 Z M 107.3125 -23.9375 C 105.664062 -23.9375 103.519531 -24.269531 100.875 -24.9375 C 98.894531 -25.59375 97.738281 -26.414062 97.40625 -27.40625 C 97.40625 -28.394531 98.125 -29.492188 99.5625 -30.703125 C 101.539062 -32.242188 103.300781 -33.015625 104.84375 -33.015625 C 109.132812 -34.671875 113.535156 -35.164062 118.046875 -34.5 C 121.347656 -34.394531 123.601562 -34.007812 124.8125 -33.34375 C 125.914062 -32.90625 126.519531 -32.023438 126.625 -30.703125 C 126.625 -29.390625 125.632812 -28.070312 123.65625 -26.75 C 122.332031 -25.757812 120.40625 -25.039062 117.875 -24.59375 C 116.226562 -24.59375 114.742188 -24.320312 113.421875 -23.78125 L 109.46875 -23.78125 C 108.914062 -23.78125 108.195312 -23.832031 107.3125 -23.9375 Z M 107.3125 -23.9375 "/></g></g></g><g fill="#ffc200" fill-opacity="1"><g transform="translate(17.06963, 311.915078)"><g><path d="M 77.109375 -30.375 C 79.742188 -31.914062 81.664062 -33.566406 82.875 -35.328125 C 84.195312 -36.867188 85.410156 -37.640625 86.515625 -37.640625 C 87.285156 -37.640625 88 -37.085938 88.65625 -35.984375 C 89.320312 -34.992188 91.414062 -33.289062 94.9375 -30.875 C 95.039062 -30.875 95.203125 -30.765625 95.421875 -30.546875 C 103.015625 -31.535156 110.003906 -31.753906 116.390625 -31.203125 C 120.023438 -32.523438 122.554688 -33.789062 123.984375 -35 L 124.8125 -35.828125 C 128.445312 -45.398438 128.832031 -52.554688 125.96875 -57.296875 C 124.644531 -59.597656 122.445312 -60.804688 119.375 -60.921875 C 115.40625 -60.921875 112.101562 -61.25 109.46875 -61.90625 C 107.8125 -62.570312 105.164062 -62.6875 101.53125 -62.25 C 97.351562 -60.59375 94.109375 -58.28125 91.796875 -55.3125 C 90.804688 -48.375 89.816406 -44.082031 88.828125 -42.4375 C 87.609375 -40.445312 86.394531 -39.566406 85.1875 -39.796875 C 83.539062 -39.796875 82.71875 -41.003906 82.71875 -43.421875 C 82.050781 -47.929688 81.832031 -51.453125 82.0625 -53.984375 C 80.519531 -55.960938 78.097656 -57.5625 74.796875 -58.78125 C 71.816406 -58.664062 68.734375 -58.222656 65.546875 -57.453125 C 62.898438 -56.796875 59.765625 -56.519531 56.140625 -56.625 C 52.609375 -54.976562 49.851562 -52.171875 47.875 -48.203125 C 47.875 -47.109375 47.765625 -45.734375 47.546875 -44.078125 C 47.210938 -42.429688 47.101562 -40.394531 47.21875 -37.96875 C 47.550781 -35 47 -32.191406 45.5625 -29.546875 C 44.019531 -27.566406 42.59375 -26.851562 41.28125 -27.40625 C 40.289062 -27.957031 39.570312 -29.003906 39.125 -30.546875 C 38.800781 -33.179688 38.195312 -34.773438 37.3125 -35.328125 C 36.65625 -36.648438 36.328125 -38.25 36.328125 -40.125 C 35.992188 -42.757812 35.332031 -45.179688 34.34375 -47.390625 C 34.125 -48.921875 33.90625 -50.40625 33.6875 -51.84375 C 33.6875 -54.8125 32.914062 -58.332031 31.375 -62.40625 C 30.707031 -64.601562 30.59375 -66.582031 31.03125 -68.34375 C 31.695312 -70.332031 33.238281 -72.039062 35.65625 -73.46875 C 37.3125 -74.125 39.070312 -74.066406 40.9375 -73.296875 C 42.375 -72.859375 43.53125 -71.816406 44.40625 -70.171875 C 46.394531 -69.503906 48.269531 -68.894531 50.03125 -68.34375 C 50.351562 -68.894531 51.125 -69.226562 52.34375 -69.34375 C 60.59375 -71.875 68.019531 -72.367188 74.625 -70.828125 L 80.078125 -75.28125 C 79.859375 -76.9375 79.582031 -77.875 79.25 -78.09375 C 78.695312 -79.082031 78.3125 -80.179688 78.09375 -81.390625 C 78.09375 -85.023438 78.972656 -87.941406 80.734375 -90.140625 C 81.503906 -91.460938 82.828125 -92.234375 84.703125 -92.453125 C 86.128906 -92.671875 87.613281 -92.285156 89.15625 -91.296875 C 90.914062 -90.203125 92.125 -88.609375 92.78125 -86.515625 C 93.445312 -84.859375 93.671875 -83.207031 93.453125 -81.5625 C 93.222656 -80.457031 93.164062 -78.914062 93.28125 -76.9375 C 93.28125 -76.28125 93.222656 -75.179688 93.109375 -73.640625 C 93.441406 -73.640625 93.882812 -73.304688 94.4375 -72.640625 C 95.09375 -72.203125 95.972656 -71.597656 97.078125 -70.828125 C 100.046875 -71.046875 102.960938 -71.597656 105.828125 -72.484375 C 108.472656 -73.140625 111.609375 -73.359375 115.234375 -73.140625 C 119.640625 -73.023438 122.671875 -72.472656 124.328125 -71.484375 C 126.304688 -70.492188 128.671875 -69.832031 131.421875 -69.5 C 133.398438 -69.5 135.269531 -68.507812 137.03125 -66.53125 C 141 -62.457031 141.710938 -56.128906 139.171875 -47.546875 C 137.859375 -43.585938 137.035156 -39.078125 136.703125 -34.015625 L 136.703125 -33.1875 C 138.128906 -30.539062 139.394531 -28.554688 140.5 -27.234375 L 141.65625 -27.234375 C 150.238281 -28.554688 156.625 -26.742188 160.8125 -21.796875 C 162.125 -20.035156 162.453125 -18 161.796875 -15.6875 C 161.460938 -13.59375 159.644531 -11.992188 156.34375 -10.890625 C 152.5 -9.898438 148.484375 -10.285156 144.296875 -12.046875 C 138.347656 -15.242188 132.84375 -16.894531 127.78125 -17 C 123.164062 -17 120.03125 -17.382812 118.375 -18.15625 C 116.175781 -19.039062 113.972656 -19.316406 111.765625 -18.984375 C 109.128906 -18.878906 106.328125 -18.988281 103.359375 -19.3125 C 102.035156 -19.644531 100.601562 -19.8125 99.0625 -19.8125 C 96.09375 -18.15625 93.78125 -16.445312 92.125 -14.6875 C 91.25 -12.050781 90.8125 -10.625 90.8125 -10.40625 C 90.476562 -9.082031 89.867188 -8.035156 88.984375 -7.265625 C 88.660156 -6.929688 88.164062 -6.160156 87.5 -4.953125 C 87.5 -3.847656 87.003906 -2.96875 86.015625 -2.3125 C 85.359375 -1.65625 84.695312 -0.882812 84.03125 0 C 82.71875 2.414062 80.1875 5.164062 76.4375 8.25 C 69.175781 13.976562 61.75 18.160156 54.15625 20.796875 C 52.5 21.242188 51.175781 21.796875 50.1875 22.453125 C 49.195312 23.109375 47.765625 23.550781 45.890625 23.78125 C 45.015625 23.78125 43.972656 24.050781 42.765625 24.59375 C 38.578125 25.582031 35.328125 26.023438 33.015625 25.921875 C 29.710938 25.035156 27.128906 23.492188 25.265625 21.296875 C 23.609375 18.765625 23 16.125 23.4375 13.375 C 23.882812 11.175781 25.375 9.523438 27.90625 8.421875 C 30.21875 7.429688 32.582031 7.539062 35 8.75 C 38.414062 10.070312 42.046875 10.675781 45.890625 10.5625 C 47.546875 10.007812 48.976562 9.625 50.1875 9.40625 C 51.84375 9.082031 53.21875 8.644531 54.3125 8.09375 C 55.300781 7.425781 56.40625 6.984375 57.625 6.765625 C 64.550781 4.453125 71.375 -1.101562 78.09375 -9.90625 C 78.75 -11.550781 79.132812 -13.035156 79.25 -14.359375 C 77.925781 -15.679688 76.273438 -16.945312 74.296875 -18.15625 C 70.992188 -18.15625 69.007812 -18.101562 68.34375 -18 C 57.445312 -17.664062 51.503906 -17.609375 50.515625 -17.828125 C 48.535156 -18.492188 47.328125 -19.597656 46.890625 -21.140625 C 46.890625 -23.003906 47.710938 -24.488281 49.359375 -25.59375 C 56.410156 -29.550781 65.660156 -31.144531 77.109375 -30.375 Z M 76.109375 -106.15625 C 79.078125 -105.164062 80.5625 -103.515625 80.5625 -101.203125 C 80.5625 -99.441406 79.242188 -98.066406 76.609375 -97.078125 C 73.742188 -96.640625 71.210938 -96.582031 69.015625 -96.90625 C 67.804688 -97.238281 66.429688 -97.296875 64.890625 -97.078125 C 63.898438 -96.960938 62.796875 -96.851562 61.578125 -96.75 C 61.253906 -96.632812 60.976562 -96.359375 60.75 -95.921875 C 59.757812 -95.484375 58.828125 -94.601562 57.953125 -93.28125 C 57.953125 -88.21875 57.398438 -84.640625 56.296875 -82.546875 C 55.640625 -81.222656 54.539062 -80.398438 53 -80.078125 C 51.34375 -80.398438 49.691406 -81.664062 48.046875 -83.875 C 46.722656 -85.519531 45.84375 -87.941406 45.40625 -91.140625 C 45.40625 -91.359375 45.347656 -91.519531 45.234375 -91.625 C 44.898438 -92.175781 44.515625 -92.507812 44.078125 -92.625 C 41.222656 -94.9375 36.328125 -95.046875 29.390625 -92.953125 C 25.421875 -91.847656 21.675781 -91.957031 18.15625 -93.28125 C 14.53125 -94.9375 12.71875 -97.300781 12.71875 -100.375 C 12.71875 -103.351562 14.144531 -105.773438 17 -107.640625 C 20.632812 -109.617188 24.65625 -109.953125 29.0625 -108.640625 C 33.789062 -107.867188 37.253906 -107.484375 39.453125 -107.484375 C 39.898438 -108.140625 41.222656 -109.734375 43.421875 -112.265625 C 43.421875 -116.773438 43.859375 -120.078125 44.734375 -122.171875 C 45.503906 -124.816406 46.5 -126.25 47.71875 -126.46875 C 49.144531 -126.46875 50.519531 -125.585938 51.84375 -123.828125 C 53.9375 -121.398438 54.925781 -119.304688 54.8125 -117.546875 C 55.144531 -116.453125 55.585938 -115.1875 56.140625 -113.75 C 56.242188 -113.425781 56.40625 -112.929688 56.625 -112.265625 C 58.0625 -110.941406 59.601562 -109.734375 61.25 -108.640625 C 61.582031 -108.859375 62.023438 -108.859375 62.578125 -108.640625 C 68.191406 -108.304688 72.703125 -107.476562 76.109375 -106.15625 Z M 139.34375 -97.90625 C 137.03125 -98.5625 135.210938 -98.613281 133.890625 -98.0625 C 130.367188 -96.75 128.609375 -95.867188 128.609375 -95.421875 C 126.960938 -88.492188 125.863281 -84.476562 125.3125 -83.375 C 124.425781 -82.050781 123.210938 -81.335938 121.671875 -81.234375 C 117.710938 -82.546875 115.675781 -86.5625 115.5625 -93.28125 C 115.5625 -93.832031 115.507812 -94.328125 115.40625 -94.765625 C 115.1875 -95.097656 114.96875 -95.316406 114.75 -95.421875 C 112.757812 -97.734375 107.695312 -98.945312 99.5625 -99.0625 C 98.238281 -99.0625 96.585938 -99.5 94.609375 -100.375 C 93.285156 -101.363281 92.515625 -102.628906 92.296875 -104.171875 C 92.296875 -105.492188 92.84375 -106.597656 93.9375 -107.484375 C 95.039062 -108.472656 96.859375 -108.910156 99.390625 -108.796875 C 101.035156 -108.796875 102.796875 -108.960938 104.671875 -109.296875 C 107.097656 -109.628906 109.460938 -109.6875 111.765625 -109.46875 C 113.085938 -110.457031 114.578125 -112.050781 116.234375 -114.25 C 117.660156 -120.519531 118.539062 -123.765625 118.875 -123.984375 C 119.96875 -126.296875 121.125 -127.5625 122.34375 -127.78125 C 123.664062 -127.78125 124.929688 -126.738281 126.140625 -124.65625 C 126.796875 -123.664062 127.785156 -120.03125 129.109375 -113.75 C 132.078125 -111.113281 135.707031 -110.179688 140 -110.953125 C 140.113281 -111.171875 140.445312 -111.28125 141 -111.28125 C 147.925781 -112.601562 153.703125 -111.664062 158.328125 -108.46875 C 159.648438 -107.476562 160.421875 -105.550781 160.640625 -102.6875 C 160.640625 -101.695312 159.867188 -100.210938 158.328125 -98.234375 C 156.347656 -96.472656 154.585938 -95.648438 153.046875 -95.765625 C 152.171875 -95.984375 150.960938 -95.984375 149.421875 -95.765625 C 148.535156 -95.429688 145.175781 -96.144531 139.34375 -97.90625 Z M 107.15625 6.109375 C 103.1875 2.472656 100.816406 -0.113281 100.046875 -1.65625 C 99.722656 -2.96875 100 -4.394531 100.875 -5.9375 C 101.3125 -6.601562 102.300781 -7.046875 103.84375 -7.265625 C 106.488281 -7.816406 108.523438 -6.828125 109.953125 -4.296875 C 111.390625 -2.859375 112.929688 -1.8125 114.578125 -1.15625 C 122.285156 1.257812 126.25 2.632812 126.46875 2.96875 C 127.894531 4.625 129.546875 5.671875 131.421875 6.109375 C 135.492188 6.765625 138.519531 8.140625 140.5 10.234375 C 142.476562 11.890625 143.523438 13.816406 143.640625 16.015625 C 143.960938 18.109375 143.6875 19.976562 142.8125 21.625 C 142.257812 23.28125 140.882812 24.4375 138.6875 25.09375 C 137.363281 25.53125 135.929688 25.695312 134.390625 25.59375 C 131.523438 24.925781 129.320312 23.769531 127.78125 22.125 C 127.125 21.132812 125.585938 20.195312 123.171875 19.3125 C 117.003906 17 112.488281 13.535156 109.625 8.921875 C 108.96875 7.921875 108.144531 6.984375 107.15625 6.109375 Z M 22.28125 -25.75 C 24.707031 -25.09375 26.859375 -24.875 28.734375 -25.09375 C 31.148438 -25.976562 33.84375 -25.8125 36.8125 -24.59375 C 40.226562 -23.820312 42.210938 -22.722656 42.765625 -21.296875 C 43.421875 -19.648438 43.144531 -18.164062 41.9375 -16.84375 C 40.613281 -15.1875 38.46875 -14.03125 35.5 -13.375 C 30.65625 -12.601562 25.921875 -11.722656 21.296875 -10.734375 C 18.328125 -9.960938 15.519531 -10.070312 12.875 -11.0625 C 10.5625 -12.382812 9.296875 -14.253906 9.078125 -16.671875 C 9.078125 -19.535156 10.015625 -21.679688 11.890625 -23.109375 C 15.296875 -26.085938 18.757812 -26.96875 22.28125 -25.75 Z M 22.28125 -25.75 "/></g></g></g></svg>