<svg width="200" height="200" viewBox="0 0 200 200" xmlns="http://www.w3.org/2000/svg" class="gold-profile-svg">
    <defs>
        <linearGradient id="goldGradient">
            <stop offset="0%" stop-color="#a17d1a" />   <!-- Darker Base -->
            <stop offset="20%" stop-color="#d4af37" />   <!-- Rich Mid Gold -->
            <stop offset="40%" stop-color="#fff0a0" />   <!-- Bright Highlight -->
            <stop offset="60%" stop-color="#d4af37" />   <!-- Rich Mid Gold -->
            <stop offset="80%" stop-color="#b79226" />   <!-- Slightly Darker Mid -->
            <stop offset="100%" stop-color="#a17d1a" />  <!-- Darker Base -->
        </linearGradient>
    </defs>

    <!-- Square Gold Border, Black Fill -->
    <rect id="gold-card-border" width="198" height="198" x="1" y="1" rx="15" ry="15" fill="black" stroke="url(#goldGradient)" stroke-width="2"/>

    <!-- Centered and Scaled Golden Profile Icon (Scale 0.6) -->
    <!-- Original path size ~128x240. Scaled by 0.6 -> ~76.8 x 144 -->
    <!-- Centered in 200x200 box: translate((200-76.8)/2, (200-144)/2) = translate(61.6, 28) -->
    <g id="card-icon-group" transform="translate(61.6, 28) scale(0.6)">
         <path fill="url(#goldGradient)" d="M128 64c0-35.346-28.654-64-64-64S0 28.654 0 64s28.654 64 64 64 64-28.654 64-64zm-64 80c-44.183 0-80 35.817-80 80v16c0 8.837 7.163 16 16 16h128c8.837 0 16-7.163 16-16v-16c0-44.183-35.817-80-80-80z"/>
    </g>

</svg>