<?xml version="1.0" encoding="UTF-8"?>
<svg width="16" height="16" viewBox="0 0 16 16" xmlns="http://www.w3.org/2000/svg">
  <defs>
    <linearGradient id="goldGradient" gradientTransform="rotate(135)">
      <stop offset="0%" stop-color="#8e6f20" />
      <stop offset="25%" stop-color="#f3e28c" />
      <stop offset="40%" stop-color="#c9b074" />
      <stop offset="60%" stop-color="#fcf59d" />
      <stop offset="100%" stop-color="#8e6f20" />
    </linearGradient>
  </defs>
  
  <!-- Black Background -->
  <rect width="16" height="16" fill="black"/>
  
  <!-- Profile Icon (Centered) -->
  <g transform="translate(4, 2.5) scale(0.025)">
    <path fill="url(#goldGradient)" d="M128 64c0-35.346-28.654-64-64-64S0 28.654 0 64s28.654 64 64 64 64-28.654 64-64zm-64 80c-44.183 0-80 35.817-80 80v16c0 8.837 7.163 16 16 16h128c8.837 0 16-7.163 16-16v-16c0-44.183-35.817-80-80-80z"/>
  </g>
  
  <!-- Text Lines (Simplified) -->
  <rect x="4" y="10" width="8" height="0.7" rx="0.35" fill="url(#goldGradient)" />
  <rect x="4" y="12" width="8" height="0.6" rx="0.3" fill="url(#goldGradient)" />
  <rect x="4" y="14" width="8" height="0.5" rx="0.25" fill="url(#goldGradient)" />
</svg> 